<?xml version="1.0" encoding="UTF-8"?>
<svg id="Camada_1" xmlns="http://www.w3.org/2000/svg" viewBox="0 0 500 150">
  <defs>
    <style>
      .cls-1 {
        fill: #ffffff;
      }

      .cls-2 {
        fill: #f58807;
      }
    </style>
  </defs>
  <g>
    <path class="cls-2" d="M124.21,0H27.49C12.77,0,.85,11.93.85,26.64v96.73c0,14.71,11.93,26.64,26.64,26.64h1.04V63.82c0-9.86,6.4-18.59,15.82-21.54l47.05-14.77v38.9l31.77-9.97v93.56h1.04c14.71,0,26.64-11.93,26.64-26.64V26.64C150.85,11.93,138.92,0,124.21,0Z"/>
    <path class="cls-2" d="M60.3,150h31.1v-83.59l-21.84,6.85c-5.51,1.73-9.26,6.84-9.26,12.61v64.12Z"/>
  </g>
  <g>
    <path class="cls-1" d="M255.45,37.72c-3.12,0-5.72-.98-7.8-2.94-2.08-1.96-3.12-4.78-3.12-8.46s1.04-6.48,3.12-8.4c2.08-1.92,4.68-2.88,7.8-2.88s5.72.96,7.8,2.88c2.08,1.92,3.12,4.72,3.12,8.4s-1.04,6.5-3.12,8.46c-2.08,1.96-4.68,2.94-7.8,2.94ZM245.12,44.33h20.41v66.63h-20.41V44.33Z"/>
    <path class="cls-1" d="M227.9,45.23c-3.16-1.8-7.62-2.7-13.39-2.7-8.56,0-14.67,2-18.31,6-3.64,4-5.46,9.6-5.46,16.81v21.01c0,6.8,1.08,12.07,3.24,15.79,2.16,3.72,5.54,6.32,10.14,7.8,4.6,1.48,10.62,2.22,18.07,2.22l13.09-1.2v-15.61h-15.49c-2.24,0-3.98-.3-5.22-.9-1.24-.6-2.12-1.6-2.64-3-.52-1.4-.78-3.3-.78-5.7v-20.41c0-2.08.14-3.76.42-5.04.28-1.28,1.26-1.92,2.94-1.92,1.12,0,1.92.28,2.4.84.48.56.76,1.36.84,2.4.08,1.04.12-.03.12,1.41v9.83h18.58l.03-9.83c0-4.8-.64-6.59-1.92-9.99-1.28-3.4-3.5-6-6.66-7.8Z"/>
    <path class="cls-1" d="M269.97,44.33h37.94v15.61h-37.94v-15.61ZM303.11,95.35h4.8v15.61l-12.01,1.2c-6.48,0-11.33-1.56-14.53-4.68-3.2-3.12-4.8-8.36-4.8-15.73v-38.42l-.6-3.6,4.2-23.41h16.81v60.51c0,3.28.32,5.52.96,6.72.64,1.2,2.36,1.8,5.16,1.8Z"/>
    <path class="cls-1" d="M362.89,44.33l-11.64,66.63c-.88,5.2-2.48,9.58-4.8,13.15-2.32,3.56-5.18,6.26-8.58,8.1-3.4,1.84-7.18,2.76-11.35,2.76l-12.13-1.2v-16.81c3.68,0,6.94-.14,9.78-.42,2.84-.28,5.16-.86,6.96-1.74,1.8-.88,2.9-2.16,3.3-3.84h-12.37l-11.77-66.63h20.77l3.96,37.46.84,13.33h1.44l4.8-50.78h20.77Z"/>
    <path class="cls-2" d="M394.59,43.01c5.68,0,9.76,2.12,12.25,6.36,2.48,4.24,3.72,10.17,3.72,17.77v20.05c0,7.92-1.58,14.11-4.74,18.55-3.16,4.44-8.1,6.66-14.83,6.66-2,0-3.78-.24-5.34-.72-1.56-.48-2.94-.96-4.14-1.44.08,1.6.14,3.3.18,5.1.04,1.8.06,3.5.06,5.1v11.41h-9.6V60.77l-1.32-16.21,8.16-.72,1.44,7.92c.72-1.04,1.72-2.26,3-3.66,1.28-1.4,2.82-2.6,4.62-3.6,1.8-1,3.98-1.5,6.54-1.5ZM400.95,87.19v-20.05c0-5.76-.68-9.76-2.04-12.01-1.36-2.24-3.36-3.36-6-3.36-1.68,0-3.26.48-4.74,1.44-1.48.96-2.78,2.04-3.9,3.24-1.12,1.2-2,2.24-2.64,3.12v42.5c1.2.48,2.52.9,3.96,1.26,1.44.36,3.04.54,4.8.54,3.84,0,6.56-1.4,8.16-4.2,1.6-2.8,2.4-6.96,2.4-12.49Z"/>
    <path class="cls-2" d="M453.05,53.33c-1.28-.24-2.72-.36-4.32-.36-2.64,0-5.1.76-7.38,2.28-2.28,1.52-4.14,3.44-5.58,5.76v49.94h-9.72v-50.3l-1.32-16.09,8.4-.72,1.44,8.16c.72-1.36,1.68-2.66,2.88-3.9,1.2-1.24,2.7-2.28,4.5-3.12,1.8-.84,3.94-1.26,6.42-1.26,1.2,0,2.26.08,3.18.24.92.16,1.7.36,2.34.6l-.84,8.76Z"/>
    <path class="cls-2" d="M460.73,88.63v-21.85c0-8.24,1.56-14.27,4.68-18.07,3.12-3.8,7.96-5.7,14.53-5.7s11.5,1.9,14.59,5.7c3.08,3.8,4.62,9.83,4.62,18.07v21.85c0,8.08-1.54,14.07-4.62,17.95-3.08,3.88-7.94,5.82-14.59,5.82s-11.4-1.94-14.53-5.82c-3.12-3.88-4.68-9.86-4.68-17.95ZM470.34,88.63c0,5.52.68,9.47,2.04,11.82,1.36,2.36,3.88,3.54,7.56,3.54s6.32-1.18,7.68-3.54c1.36-2.36,2.04-6.3,2.04-11.82v-21.85c0-5.52-.68-9.46-2.04-11.82-1.36-2.36-3.92-3.54-7.68-3.54s-6.2,1.18-7.56,3.54c-1.36,2.36-2.04,6.3-2.04,11.82v21.85Z"/>
  </g>
</svg>