<?xml version="1.0" encoding="UTF-8"?>
<svg id="Camada_1" xmlns="http://www.w3.org/2000/svg" version="1.1" viewBox="0 0 498.3 150">
  <!-- Generator: Adobe Illustrator 30.6.0, SVG Export Plug-In . SVG Version: 2.1.4 Build 109)  -->
  <defs>
    <style>
      .st0 {
        fill: #1e1e1e;
      }

      .st1 {
        fill: #f58807;
      }
    </style>
  </defs>
  <g>
    <path class="st1" d="M123.4,0H26.6C11.9,0,0,11.9,0,26.6v96.7c0,14.7,11.9,26.6,26.6,26.6h1V63.8c0-9.9,6.4-18.6,15.8-21.5l47-14.8v38.9l31.8-10v93.6h1c14.7,0,26.6-11.9,26.6-26.6V26.6c0-14.7-11.9-26.6-26.6-26.6Z"/>
    <path class="st1" d="M59.4,150h31.1v-83.6l-21.8,6.8c-5.5,1.7-9.3,6.8-9.3,12.6v64.1h0Z"/>
  </g>
  <g>
    <path class="st0" d="M254.6,37.7c-3.1,0-5.7-1-7.8-2.9s-3.1-4.8-3.1-8.5,1-6.5,3.1-8.4,4.7-2.9,7.8-2.9,5.7,1,7.8,2.9c2.1,1.9,3.1,4.7,3.1,8.4s-1,6.5-3.1,8.5-4.7,2.9-7.8,2.9ZM244.3,44.3h20.4v66.6h-20.4V44.3Z"/>
    <path class="st0" d="M227,45.2c-3.2-1.8-7.6-2.7-13.4-2.7-8.6,0-14.7,2-18.3,6s-5.5,9.6-5.5,16.8v21c0,6.8,1.1,12.1,3.2,15.8s5.5,6.3,10.1,7.8,10.6,2.2,18.1,2.2l13.1-1.2v-15.6h-15.5c-2.2,0-4-.3-5.2-.9s-2.1-1.6-2.6-3-.8-3.3-.8-5.7v-20.4c0-2.1.1-3.8.4-5,.3-1.3,1.3-1.9,2.9-1.9s1.9.3,2.4.8.8,1.4.8,2.4.1,0,.1,1.4v9.8h18.6v-9.8c0-4.8-.6-6.6-1.9-10-1.3-3.4-3.5-6-6.7-7.8h0Z"/>
    <path class="st0" d="M269.1,44.3h37.9v15.6h-37.9v-15.6ZM302.3,95.3h4.8v15.6l-12,1.2c-6.5,0-11.3-1.6-14.5-4.7s-4.8-8.4-4.8-15.7v-38.4l-.6-3.6,4.2-23.4h16.8v60.5c0,3.3.3,5.5,1,6.7.6,1.2,2.4,1.8,5.2,1.8h0Z"/>
    <path class="st0" d="M362,44.3l-11.6,66.6c-.9,5.2-2.5,9.6-4.8,13.2-2.3,3.6-5.2,6.3-8.6,8.1-3.4,1.8-7.2,2.8-11.4,2.8l-12.1-1.2v-16.8c3.7,0,6.9-.1,9.8-.4s5.2-.9,7-1.7,2.9-2.2,3.3-3.8h-12.4l-11.8-66.6h20.8l4,37.5.8,13.3h1.4l4.8-50.8h20.8Z"/>
    <path class="st1" d="M393.7,43c5.7,0,9.8,2.1,12.2,6.4,2.5,4.2,3.7,10.2,3.7,17.8v20.1c0,7.9-1.6,14.1-4.7,18.6s-8.1,6.7-14.8,6.7-3.8-.2-5.3-.7-2.9-1-4.1-1.4c0,1.6.1,3.3.2,5.1,0,1.8,0,3.5,0,5.1v11.4h-9.6V60.8l-1.3-16.2,8.2-.7,1.4,7.9c.7-1,1.7-2.3,3-3.7s2.8-2.6,4.6-3.6,4-1.5,6.5-1.5h0ZM400.1,87.2v-20.1c0-5.8-.7-9.8-2-12-1.4-2.2-3.4-3.4-6-3.4s-3.3.5-4.7,1.4c-1.5,1-2.8,2-3.9,3.2s-2,2.2-2.6,3.1v42.5c1.2.5,2.5.9,4,1.3s3,.5,4.8.5c3.8,0,6.6-1.4,8.2-4.2,1.6-2.8,2.4-7,2.4-12.5h0Z"/>
    <path class="st1" d="M452.2,53.3c-1.3-.2-2.7-.4-4.3-.4-2.6,0-5.1.8-7.4,2.3s-4.1,3.4-5.6,5.8v49.9h-9.7v-50.3l-1.3-16.1,8.4-.7,1.4,8.2c.7-1.4,1.7-2.7,2.9-3.9s2.7-2.3,4.5-3.1,3.9-1.3,6.4-1.3,2.3,0,3.2.2c.9.2,1.7.4,2.3.6l-.8,8.8h0Z"/>
    <path class="st1" d="M459.9,88.6v-21.8c0-8.2,1.6-14.3,4.7-18.1s8-5.7,14.5-5.7,11.5,1.9,14.6,5.7c3.1,3.8,4.6,9.8,4.6,18.1v21.8c0,8.1-1.5,14.1-4.6,18-3.1,3.9-7.9,5.8-14.6,5.8s-11.4-1.9-14.5-5.8c-3.1-3.9-4.7-9.9-4.7-18ZM469.5,88.6c0,5.5.7,9.5,2,11.8,1.4,2.4,3.9,3.5,7.6,3.5s6.3-1.2,7.7-3.5,2-6.3,2-11.8v-21.8c0-5.5-.7-9.5-2-11.8-1.4-2.4-3.9-3.5-7.7-3.5s-6.2,1.2-7.6,3.5-2,6.3-2,11.8v21.8Z"/>
  </g>
</svg>